<?xml version="1.0" standalone="no"?><!DOCTYPE svg PUBLIC "-//W3C//DTD SVG 1.1//EN" "http://www.w3.org/Graphics/SVG/1.1/DTD/svg11.dtd"><svg t="1639705439499" class="icon" viewBox="0 0 1024 1024" version="1.1" xmlns="http://www.w3.org/2000/svg" p-id="16554" xmlns:xlink="http://www.w3.org/1999/xlink" width="40" height="40"><defs><style type="text/css"></style></defs><path d="M970.474667 521.813333a14.08 14.08 0 0 0-10.24 0l-49.92 29.013334a13.653333 13.653333 0 0 0-5.12 18.346666 13.653333 13.653333 0 0 0 18.346666 4.693334l49.92-29.013334a13.226667 13.226667 0 0 0 5.12-17.92 13.226667 13.226667 0 0 0-8.106666-5.12zM754.581333 218.026667l23.466667-13.653334a29.013333 29.013333 0 0 0 10.666667-39.68 28.586667 28.586667 0 0 0-39.68-10.666666L576.234667 256a28.586667 28.586667 0 0 1-15.786667 0 29.013333 29.013333 0 0 1-17.92-13.653333 29.866667 29.866667 0 0 1 12.373333-40.96l85.333334-50.346667a390.826667 390.826667 0 0 0-526.933334 368.213333 394.24 394.24 0 0 0 37.973334 170.666667l-56.32 32.853333a20.053333 20.053333 0 0 0-7.253334 27.306667 19.626667 19.626667 0 0 0 12.373334 9.386667 20.053333 20.053333 0 0 0 14.933333-2.133334L243.434667 682.666667a32 32 0 0 1 34.56 16.213333 33.28 33.28 0 0 1-3.413334 38.826667L71.488 853.333333a29.44 29.44 0 0 0-10.666667 39.68 30.72 30.72 0 0 0 17.92 13.653334 29.866667 29.866667 0 0 0 21.76-2.986667L388.501333 738.133333a14.506667 14.506667 0 0 1 8.96 6.826667 15.36 15.36 0 0 1-5.546666 20.48l-119.466667 69.546667A389.12 389.12 0 0 0 834.794667 725.333333l-39.68 23.04a15.36 15.36 0 0 1-11.52 0 14.506667 14.506667 0 0 1-8.96-6.826666 14.933333 14.933333 0 0 1 5.546666-20.48l81.066667-47.36a395.093333 395.093333 0 0 0-106.666667-459.093334zM1016.981333 494.933333a12.373333 12.373333 0 0 0-13.226666 0 11.946667 11.946667 0 0 0-6.4 11.52 12.373333 12.373333 0 0 0 6.4 11.52 12.373333 12.373333 0 0 0 13.226666 0 13.226667 13.226667 0 0 0 6.4-11.52 12.373333 12.373333 0 0 0-6.4-11.52zM81.301333 357.12L85.568 354.133333a14.08 14.08 0 0 0 0-5.12v-2.986666A14.08 14.08 0 0 0 85.568 341.333333l-4.266667-3.413333h-27.733333v-23.466667a14.08 14.08 0 0 0 0-5.12l-2.986667-2.986666L42.901333 305.493333H37.781333a6.826667 6.826667 0 0 0-2.986666 2.986667 8.533333 8.533333 0 0 0 0 5.12v23.466667h-29.866667L0.234667 341.333333a14.08 14.08 0 0 0 0 5.12v2.986667a14.08 14.08 0 0 0 0 4.693333l2.986666 2.986667a8.533333 8.533333 0 0 0 5.12 0h24.32v22.613333a8.533333 8.533333 0 0 0 0.853334 4.266667 6.826667 6.826667 0 0 0 2.986666 2.986667H42.901333a14.08 14.08 0 0 0 5.12 0A9.813333 9.813333 0 0 0 52.714667 384a14.08 14.08 0 0 0 0-5.12v-20.906667h22.613333a8.533333 8.533333 0 0 0 5.973333-0.853333zM810.901333 165.12a27.733333 27.733333 0 0 0 28.16 0 28.16 28.16 0 1 0-28.16 0zM876.608 853.333333h-16.64v-12.8a6.826667 6.826667 0 0 0 0-3.84 3.84 3.84 0 0 0-2.56-2.56 6.826667 6.826667 0 0 0-3.84 0 5.12 5.12 0 0 0-3.84 0 5.546667 5.546667 0 0 0-2.986667 2.56 12.373333 12.373333 0 0 0 0 3.84v12.8h-16.64l-2.986666 2.986667a10.24 10.24 0 0 0 0 3.84 12.373333 12.373333 0 0 0 0 3.84l2.986666 2.986667h16.64v12.8a12.373333 12.373333 0 0 0 0 3.84 5.546667 5.546667 0 0 0 2.986667 2.56 5.12 5.12 0 0 0 3.84 0 6.826667 6.826667 0 0 0 3.84 0 3.84 3.84 0 0 0 2.56-2.56 6.826667 6.826667 0 0 0 0-3.84v-12.8h16.64s2.133333 0 2.56-2.986667a6.826667 6.826667 0 0 0 0-3.84 5.12 5.12 0 0 0 0-3.84s-1.706667-2.986667-2.56-2.986667z" fill="#8081FF" p-id="16555"></path></svg>